name rise36.2859peak64.2979fall75.1499.mot
datacolumns 19
datarows 35
range 13.50827800000000 13.56495100000000
endheader
time	ground_force1_vx	ground_force1_vy	ground_force1_vz	ground_force1_px	ground_force1_py	ground_force1_pz	ground_force2_vx	ground_force2_vy	ground_force2_vz	ground_force2_px	ground_force2_py	ground_force2_pz	ground_torque1_x	ground_torque1_y	ground_torque1_z	ground_torque2_x	ground_torque2_y	ground_torque2_z	
13.50827800000000	-8.14478200000000	41.10634400000000	-9.78889400000000	0.40722000000000	0.00000000000000	0.09196600000000	-47.49037100000000	799.33996200000001	-57.47740600000000	0.20974500000000	0.00000000000000	-0.09971000000000	0.00000000000000	-8.15510400000000	0.00000000000000	0.00000000000000	-30.92187000000000	0.00000000000000	
13.50995100000000	-8.93456900000000	48.19902000000000	-10.98940200000000	0.40769400000000	0.00000000000000	0.09299300000000	-48.31031000000000	797.14708299999995	-57.08396000000000	0.20865000000000	0.00000000000000	-0.09963900000000	0.00000000000000	-9.18413600000000	0.00000000000000	0.00000000000000	-30.82074200000000	0.00000000000000	
13.51161100000000	-9.57029000000000	55.38688500000000	-12.07387300000000	0.40820400000000	0.00000000000000	0.09392300000000	-49.15091700000000	794.84052799999995	-56.67155600000000	0.20754000000000	0.00000000000000	-0.09956600000000	0.00000000000000	-10.12758200000000	0.00000000000000	0.00000000000000	-30.71960900000000	0.00000000000000	
13.51328300000000	-10.02955400000000	62.57810900000000	-13.01644300000000	0.40875100000000	0.00000000000000	0.09477300000000	-50.01161100000000	792.41772700000001	-56.24030500000000	0.20641500000000	0.00000000000000	-0.09949300000000	0.00000000000000	-10.96487600000000	0.00000000000000	0.00000000000000	-30.61851800000000	0.00000000000000	
13.51495200000000	-10.29897300000000	69.70324900000000	-13.80011800000000	0.40933800000000	0.00000000000000	0.09555400000000	-50.89170000000000	789.87601700000005	-55.79032700000000	0.20527700000000	0.00000000000000	-0.09941800000000	0.00000000000000	-11.68251300000000	0.00000000000000	0.00000000000000	-30.51749600000000	0.00000000000000	
13.51661200000000	-10.37403200000000	76.71740699999999	-14.41687100000000	0.40996300000000	0.00000000000000	0.09627500000000	-51.79037500000000	787.21264799999994	-55.32175700000000	0.20412700000000	0.00000000000000	-0.09934300000000	0.00000000000000	-12.27412100000000	0.00000000000000	0.00000000000000	-30.41655200000000	0.00000000000000	
13.51828000000000	-10.25827100000000	83.60001099999999	-14.86698100000000	0.41062600000000	0.00000000000000	0.09694400000000	-52.70671700000000	784.42478800000004	-54.83474500000000	0.20296500000000	0.00000000000000	-0.09926600000000	0.00000000000000	-12.73995300000000	0.00000000000000	0.00000000000000	-30.31567100000000	0.00000000000000	
13.51995000000000	-9.96193700000000	90.35262600000000	-15.15781200000000	0.41132800000000	0.00000000000000	0.09756700000000	-53.63968600000000	781.50952500000005	-54.32945200000000	0.20179200000000	0.00000000000000	-0.09918800000000	0.00000000000000	-13.08591000000000	0.00000000000000	0.00000000000000	-30.21482000000000	0.00000000000000	
13.52161900000000	-9.50032600000000	96.99531100000000	-15.30221600000000	0.41206800000000	0.00000000000000	0.09815100000000	-54.58812800000000	778.46387600000003	-53.80605600000000	0.20060900000000	0.00000000000000	-0.09910900000000	0.00000000000000	-13.32227800000000	0.00000000000000	0.00000000000000	-30.11394000000000	0.00000000000000	
13.52328400000000	-8.89200100000000	103.56209900000000	-15.31676900000000	0.41284500000000	0.00000000000000	0.09869800000000	-55.55076900000000	775.28479400000003	-53.26474900000000	0.19941800000000	0.00000000000000	-0.09902900000000	0.00000000000000	-13.46231500000000	0.00000000000000	0.00000000000000	-30.01295300000000	0.00000000000000	
13.52494500000000	-8.15705300000000	110.09609900000000	-15.22000400000000	0.41365800000000	0.00000000000000	0.09921400000000	-56.52622000000000	771.96917499999995	-52.70574000000000	0.19821900000000	0.00000000000000	-0.09894700000000	0.00000000000000	-13.52084300000000	0.00000000000000	0.00000000000000	-29.91175500000000	0.00000000000000	
13.52661500000000	-7.31553700000000	116.64470600000000	-15.03079200000000	0.41450600000000	0.00000000000000	0.09970000000000	-57.51297400000000	768.51386700000000	-52.12925200000000	0.19701300000000	0.00000000000000	-0.09886500000000	0.00000000000000	-13.51295200000000	0.00000000000000	0.00000000000000	-29.81022200000000	0.00000000000000	
13.52827900000000	-6.38618500000000	123.25526800000000	-14.76697500000000	0.41538800000000	0.00000000000000	0.10016100000000	-58.50940900000000	764.91567899999995	-51.53552700000000	0.19580300000000	0.00000000000000	-0.09878000000000	0.00000000000000	-13.45289700000000	0.00000000000000	0.00000000000000	-29.70820500000000	0.00000000000000	
13.52994400000000	-5.38544000000000	129.97148300000001	-14.44431300000000	0.41630300000000	0.00000000000000	0.10059900000000	-59.51379100000000	761.17139499999996	-50.92482500000000	0.19458900000000	0.00000000000000	-0.09869500000000	0.00000000000000	-13.35324600000000	0.00000000000000	0.00000000000000	-29.60553300000000	0.00000000000000	
13.53161200000000	-4.32683400000000	136.83066700000001	-14.07577100000000	0.41725000000000	0.00000000000000	0.10101400000000	-60.52427100000000	757.27778400000000	-50.29742400000000	0.19337200000000	0.00000000000000	-0.09860800000000	0.00000000000000	-13.22430300000000	0.00000000000000	0.00000000000000	-29.50201200000000	0.00000000000000	
13.53328000000000	-3.22070400000000	143.86195200000000	-13.67114000000000	0.41822700000000	0.00000000000000	0.10141000000000	-61.53889600000000	753.23161400000004	-49.65362100000000	0.19215500000000	0.00000000000000	-0.09851900000000	0.00000000000000	-13.07379400000000	0.00000000000000	0.00000000000000	-29.39742600000000	0.00000000000000	
13.53495200000000	-2.07419200000000	151.08538100000001	-13.23697200000000	0.41923200000000	0.00000000000000	0.10178800000000	-62.55560300000000	749.02966700000002	-48.99373300000000	0.19093800000000	0.00000000000000	-0.09842900000000	0.00000000000000	-12.90679900000000	0.00000000000000	0.00000000000000	-29.29153700000000	0.00000000000000	
13.53661700000000	-0.89148800000000	158.51181299999999	-12.77675800000000	0.42026500000000	0.00000000000000	0.10214900000000	-63.57223200000000	744.66875300000004	-48.31809700000000	0.18972400000000	0.00000000000000	-0.09833700000000	0.00000000000000	-12.72589100000000	0.00000000000000	0.00000000000000	-29.18408300000000	0.00000000000000	
13.53827900000000	0.32574300000000	166.14348300000000	-12.29130900000000	0.42132400000000	0.00000000000000	0.10249400000000	-64.58652200000000	740.14572999999996	-47.62707100000000	0.18851300000000	0.00000000000000	-0.09824300000000	0.00000000000000	-12.53143300000000	0.00000000000000	0.00000000000000	-29.07478500000000	0.00000000000000	
13.53995200000000	1.57782900000000	173.97506500000000	-11.77926800000000	0.42240800000000	0.00000000000000	0.10282400000000	-65.59612500000000	735.45752000000005	-46.92103700000000	0.18730700000000	0.00000000000000	-0.09814700000000	0.00000000000000	-12.32198300000000	0.00000000000000	0.00000000000000	-28.96334000000000	0.00000000000000	
13.54161500000000	2.86650100000000	181.99506900000000	-11.23768400000000	0.42351400000000	0.00000000000000	0.10314100000000	-66.59860200000000	730.60112900000001	-46.20039400000000	0.18610900000000	0.00000000000000	-0.09805000000000	0.00000000000000	-12.09476000000000	0.00000000000000	0.00000000000000	-28.84942700000000	0.00000000000000	
13.54328000000000	4.19430400000000	190.18738800000000	-10.66261100000000	0.42464100000000	0.00000000000000	0.10344500000000	-67.59143600000000	725.57366300000001	-45.46556600000000	0.18491900000000	0.00000000000000	-0.09795000000000	0.00000000000000	-11.84611700000000	0.00000000000000	0.00000000000000	-28.73270700000000	0.00000000000000	
13.54497600000000	5.56405600000000	198.53287800000001	-10.04965900000000	0.42578800000000	0.00000000000000	0.10373700000000	-68.57203600000000	720.37235499999997	-44.71700000000000	0.18373900000000	0.00000000000000	-0.09784800000000	0.00000000000000	-11.57200400000000	0.00000000000000	0.00000000000000	-28.61282200000000	0.00000000000000	
13.54661800000000	6.97838100000000	207.01082900000000	-9.39449400000000	0.42695300000000	0.00000000000000	0.10401700000000	-69.53774300000001	714.99457600000005	-43.95516200000000	0.18257000000000	0.00000000000000	-0.09774300000000	0.00000000000000	-11.26836000000000	0.00000000000000	0.00000000000000	-28.48939800000000	0.00000000000000	
13.54828100000000	8.43934000000000	215.60025099999999	-8.69323100000000	0.42813500000000	0.00000000000000	0.10428600000000	-70.48583700000000	709.43786200000000	-43.18054400000000	0.18141600000000	0.00000000000000	-0.09763700000000	0.00000000000000	-10.93145100000000	0.00000000000000	0.00000000000000	-28.36204600000000	0.00000000000000	
13.54995200000000	9.94816300000000	224.28090800000001	-7.94273400000000	0.42933100000000	0.00000000000000	0.10454500000000	-71.41354800000001	703.69992999999999	-42.39365800000000	0.18027600000000	0.00000000000000	-0.09752700000000	0.00000000000000	-10.55811700000000	0.00000000000000	0.00000000000000	-28.23036000000000	0.00000000000000	
13.55161900000000	11.50509700000000	233.03409400000001	-7.14080700000000	0.43053900000000	0.00000000000000	0.10479500000000	-72.31805900000001	697.77869499999997	-41.59503900000000	0.17915400000000	0.00000000000000	-0.09741500000000	0.00000000000000	-10.14593600000000	0.00000000000000	0.00000000000000	-28.09392600000000	0.00000000000000	
13.55328500000000	13.10933900000000	241.84311700000001	-6.28628700000000	0.43175900000000	0.00000000000000	0.10503400000000	-73.19652000000001	691.67229099999997	-40.78524400000000	0.17805000000000	0.00000000000000	-0.09730000000000	0.00000000000000	-9.69330900000000	0.00000000000000	0.00000000000000	-27.95231400000000	0.00000000000000	
13.55494900000000	14.75906000000000	250.69354200000001	-5.37904900000000	0.43298800000000	0.00000000000000	0.10526500000000	-74.04604800000000	685.37907900000005	-39.96485200000000	0.17696700000000	0.00000000000000	-0.09718200000000	0.00000000000000	-9.19947500000000	0.00000000000000	0.00000000000000	-27.80508800000000	0.00000000000000	
13.55661700000000	16.45149000000000	259.57320700000002	-4.41994000000000	0.43422400000000	0.00000000000000	0.10548700000000	-74.86374700000000	678.89766699999996	-39.13446700000000	0.17590600000000	0.00000000000000	-0.09706000000000	0.00000000000000	-8.66446500000000	0.00000000000000	0.00000000000000	-27.65180300000000	0.00000000000000	
13.55828400000000	18.18305600000000	268.47206699999998	-3.41066900000000	0.43546600000000	0.00000000000000	0.10570100000000	-75.64670700000001	672.22692099999995	-38.29471000000000	0.17486800000000	0.00000000000000	-0.09693600000000	0.00000000000000	-8.08901500000000	0.00000000000000	0.00000000000000	-27.49200800000000	0.00000000000000	
13.55995400000000	19.94954000000000	277.38191000000000	-2.35365100000000	0.43671200000000	0.00000000000000	0.10590600000000	-76.39202000000000	665.36597200000006	-37.44622800000000	0.17385700000000	0.00000000000000	-0.09680800000000	0.00000000000000	-7.47445400000000	0.00000000000000	0.00000000000000	-27.32525000000000	0.00000000000000	
13.56161500000000	21.74625400000000	286.29599600000000	-1.25184500000000	0.43796000000000	0.00000000000000	0.10610400000000	-77.09678800000000	658.31422799999996	-36.58968900000000	0.17287200000000	0.00000000000000	-0.09667700000000	0.00000000000000	-6.82257200000000	0.00000000000000	0.00000000000000	-27.15107400000000	0.00000000000000	
13.56328600000000	23.56821200000000	295.20866599999999	-0.10858900000000	0.43920700000000	0.00000000000000	0.10629400000000	-77.75813300000000	651.07138299999997	-35.72578200000000	0.17191700000000	0.00000000000000	-0.09654100000000	0.00000000000000	-6.13548800000000	0.00000000000000	0.00000000000000	-26.96902700000000	0.00000000000000	
13.56495100000000	25.41028400000000	304.11495000000002	1.07255500000000	0.44045300000000	0.00000000000000	0.10647700000000	-78.37320900000000	643.63742500000001	-34.85522000000000	0.17099200000000	0.00000000000000	-0.09640200000000	0.00000000000000	-5.41552500000000	0.00000000000000	0.00000000000000	-26.77866100000000	0.00000000000000	
